<svg xmlns="http://www.w3.org/2000/svg" xmlns:xlink="http://www.w3.org/1999/xlink" width="1200" zoomAndPan="magnify" viewBox="0 0 900 449.999984" height="600" preserveAspectRatio="xMidYMid meet" version="1.0"><rect x="-90" width="1080" fill="#ffffff" y="-44.999998" height="539.99998" fill-opacity="1"/><rect x="-90" width="1080" fill="#ffffff" y="-44.999998" height="539.99998" fill-opacity="1"/><path fill="#000000" d="M 376.585938 408.273438 L 365.320312 408.273438 C 360.597656 408.273438 357.328125 405.925781 357.328125 402.53125 L 357.328125 209.757812 C 357.328125 206.367188 360.597656 204.019531 365.320312 204.019531 L 409.660156 204.019531 C 436.1875 204.019531 463.804688 218.886719 463.804688 247.84375 L 463.804688 271.058594 C 463.804688 300.015625 436.183594 314.882812 409.660156 314.882812 L 392.578125 314.882812 C 387.851562 314.882812 384.582031 317.230469 384.582031 320.625 L 384.582031 402.53125 C 384.582031 405.925781 381.3125 408.273438 376.589844 408.273438 Z M 392.578125 223.324219 C 387.851562 223.324219 384.582031 225.671875 384.582031 229.066406 L 384.582031 289.84375 C 384.582031 293.234375 387.851562 295.582031 392.578125 295.582031 L 409.660156 295.582031 C 424.554688 295.582031 436.1875 287.757812 436.1875 272.890625 L 436.1875 246.019531 C 436.1875 231.152344 424.5625 223.324219 409.660156 223.324219 Z M 392.578125 223.324219 " fill-opacity="1" fill-rule="nonzero"/><path fill="#000000" d="M 471.648438 56.125 C 471.648438 51.609375 475.796875 48.484375 481.78125 48.484375 L 496.058594 48.484375 C 497.640625 48.304688 500.375 48.242188 502.28125 49.914062 C 504.707031 52.035156 504.527344 55.84375 504.472656 57.15625 C 503.71875 75.21875 504.386719 163.910156 504.5 169.820312 C 504.515625 170.488281 504.605469 174.578125 504.609375 180.1875 C 504.613281 185.808594 504.527344 186.894531 504.476562 192.804688 C 504.386719 203.113281 504.609375 204.863281 504.472656 214.246094 C 504.40625 218.5625 504.3125 221.160156 504.253906 223.511719 C 503.9375 235.210938 504.09375 248.59375 504.472656 256.125 C 505.769531 281.824219 506.332031 295.183594 515.425781 301.40625 C 519.0625 303.898438 526.578125 303.996094 541.613281 304.1875 C 555.398438 304.367188 562.382812 304.386719 567.078125 300.933594 C 575.648438 294.625 575.664062 281.214844 575.609375 274.769531 C 575.476562 259.117188 574.03125 118.507812 574.722656 77.800781 C 574.894531 67.640625 575.269531 59.5625 575.476562 55.554688 C 575.398438 55.082031 575.058594 52.667969 576.714844 50.625 C 578.335938 48.621094 581.226562 47.777344 584.027344 48.496094 L 597.84375 48.496094 C 603.832031 48.496094 607.980469 51.625 607.980469 56.140625 C 607.496094 157.277344 607.34375 229.589844 607.980469 254.289062 C 607.980469 259.566406 607.980469 274.214844 606.660156 285.671875 C 605.105469 299.226562 604.296875 306.222656 599.28125 314.078125 C 597.59375 316.726562 592.96875 323.320312 584.867188 328.105469 C 575.703125 333.515625 569.519531 332.226562 542.621094 332.207031 C 517.332031 332.1875 507.539062 333.316406 496.109375 328.386719 C 487.054688 324.480469 482.210938 319.035156 481.226562 317.902344 C 477.832031 313.992188 475.925781 310.109375 474.859375 307.496094 C 472.527344 301.359375 472.710938 296.117188 472.722656 294.800781 C 472.835938 284.808594 471.664062 75.101562 471.664062 56.140625 Z M 471.648438 56.125 " fill-opacity="1" fill-rule="nonzero"/><path fill="#000000" d="M 633.617188 408.273438 L 622.351562 408.273438 C 617.628906 408.273438 614.359375 405.925781 614.359375 402.53125 L 614.359375 209.757812 C 614.359375 206.367188 617.628906 204.019531 622.351562 204.019531 L 666.691406 204.019531 C 693.21875 204.019531 720.835938 218.886719 720.835938 247.84375 L 720.835938 271.058594 C 720.835938 300.015625 693.214844 314.882812 666.691406 314.882812 L 649.609375 314.882812 C 644.882812 314.882812 641.613281 317.230469 641.613281 320.625 L 641.613281 402.53125 C 641.613281 405.925781 638.34375 408.273438 633.621094 408.273438 Z M 649.609375 223.324219 C 644.882812 223.324219 641.613281 225.671875 641.613281 229.066406 L 641.613281 289.84375 C 641.613281 293.234375 644.882812 295.582031 649.609375 295.582031 L 666.691406 295.582031 C 681.585938 295.582031 693.21875 287.757812 693.21875 272.890625 L 693.21875 246.019531 C 693.21875 231.152344 681.59375 223.324219 666.691406 223.324219 Z M 649.609375 223.324219 " fill-opacity="1" fill-rule="nonzero"/><path fill="#000000" d="M 285.101562 46.644531 L 251.179688 46.644531 C 209.179688 46.644531 188.179688 62.269531 188.179688 93.160156 L 188.179688 285.035156 C 188.179688 315.925781 209.179688 331.1875 251.179688 331.1875 L 285.101562 331.1875 C 327.097656 331.1875 347.558594 315.925781 347.558594 285.035156 L 347.558594 93.160156 C 347.558594 62.269531 327.097656 46.644531 285.101562 46.644531 Z M 318.929688 272.148438 C 318.929688 289.902344 304.535156 304.296875 286.78125 304.296875 L 248.953125 304.296875 C 231.203125 304.296875 216.808594 289.902344 216.808594 272.148438 L 216.808594 105.683594 C 216.808594 87.933594 231.203125 73.539062 248.953125 73.539062 L 286.78125 73.539062 C 304.535156 73.539062 318.929688 87.933594 318.929688 105.683594 Z M 318.929688 272.148438 " fill-opacity="1" fill-rule="nonzero"/><path stroke-linecap="round" transform="matrix(0.493125, 0, 0, 0.493125, 154.219823, -64.008715)" fill="none" stroke-linejoin="miter" d="M 178.007976 435.323474 L 282.927186 435.323474 " stroke="#2a9bff" stroke-width="37" stroke-opacity="1" stroke-miterlimit="10"/><path stroke-linecap="round" transform="matrix(0.493125, 0, 0, 0.493125, 154.219823, -64.008715)" fill="none" stroke-linejoin="miter" d="M 178.007976 517.85675 L 282.927186 517.85675 " stroke="#2a60ff" stroke-width="37" stroke-opacity="1" stroke-miterlimit="10"/><path stroke-linecap="round" transform="matrix(0.493125, 0, 0, 0.493125, 154.219823, -64.008715)" fill="none" stroke-linejoin="miter" d="M 179.386303 600.413791 L 284.313435 600.413791 " stroke="#003a94" stroke-width="37" stroke-opacity="1" stroke-miterlimit="10"/></svg>