<?xml version="1.0" encoding="UTF-8"?><svg id="Calque_1" xmlns="http://www.w3.org/2000/svg" viewBox="0 0 1200 1200"><defs><style>.cls-1{stroke:#2a60ff;}.cls-1,.cls-2,.cls-3{fill:none;stroke-linecap:round;stroke-miterlimit:10;stroke-width:37px;}.cls-4{fill:#000;stroke-width:0px;}.cls-2{stroke:#003a94;}.cls-3{stroke:#2a9bff;}</style></defs><path class="cls-4" d="M450.93,957.73h-22.84c-9.58,0-16.21-4.76-16.21-11.64v-390.92c0-6.88,6.63-11.64,16.21-11.64h89.91c53.8,0,109.8,30.15,109.8,88.87v47.08c0,58.72-56.01,88.87-109.8,88.87h-34.64c-9.58,0-16.21,4.76-16.21,11.64v166.1c0,6.88-6.63,11.64-16.21,11.64ZM483.36,582.68c-9.58,0-16.21,4.76-16.21,11.64v123.25c0,6.88,6.63,11.64,16.21,11.64h34.64c30.21,0,53.8-15.87,53.8-46.02v-54.49c0-30.15-23.58-46.02-53.8-46.02h-34.64Z"/><path class="cls-4" d="M643.71,243.62c0-9.16,8.41-15.5,20.55-15.5h28.95c3.21-.36,8.75-.49,12.62,2.9,4.92,4.3,4.55,12.03,4.44,14.69-1.53,36.63-.17,216.48.06,228.47.03,1.35.21,9.65.22,21.02.01,11.4-.17,13.6-.27,25.59-.18,20.9.27,24.45-.01,43.48-.13,8.75-.32,14.02-.44,18.79-.64,23.72-.33,50.86.44,66.13,2.63,52.12,3.77,79.21,22.21,91.83,7.38,5.05,22.62,5.25,53.11,5.64,27.95.36,42.12.4,51.64-6.6,17.38-12.79,17.41-39.99,17.3-53.06-.27-31.74-3.2-316.88-1.8-399.43.35-20.6,1.11-36.98,1.53-45.11-.16-.96-.85-5.85,2.51-10,3.29-4.06,9.15-5.77,14.83-4.31h28.02c12.14,0,20.55,6.34,20.55,15.5-.98,205.09-1.29,351.73,0,401.82h0c0,10.7,0,40.41-2.67,63.64-3.16,27.49-4.8,41.68-14.97,57.61-3.42,5.37-12.8,18.74-29.23,28.44-18.58,10.97-31.12,8.36-85.67,8.32-51.28-.04-71.14,2.25-94.32-7.75-18.36-7.92-28.18-18.96-30.18-21.26-6.88-7.93-10.75-15.8-12.91-21.1-4.73-12.45-4.36-23.08-4.33-25.75.23-20.26-2.15-445.52-2.15-483.97Z"/><path class="cls-4" d="M972.16,957.73h-22.84c-9.58,0-16.21-4.76-16.21-11.64v-390.92c0-6.88,6.63-11.64,16.21-11.64h89.91c53.8,0,109.8,30.15,109.8,88.87v47.08c0,58.72-56.01,88.87-109.8,88.87h-34.64c-9.58,0-16.21,4.76-16.21,11.64v166.1c0,6.88-6.63,11.64-16.21,11.64ZM1004.59,582.68c-9.58,0-16.21,4.76-16.21,11.64v123.25c0,6.88,6.63,11.64,16.21,11.64h34.64c30.21,0,53.8-15.87,53.8-46.02v-54.49c0-30.15-23.58-46.02-53.8-46.02h-34.64Z"/><path class="cls-4" d="M265.41,224.39h-68.79c-85.17,0-127.75,31.69-127.75,94.33v389.1c0,62.64,42.58,93.59,127.75,93.59h68.79c85.17,0,126.66-30.95,126.66-93.59v-389.1c0-62.64-41.49-94.33-126.66-94.33ZM334.01,681.69c0,36-29.19,65.19-65.19,65.19h-76.71c-36,0-65.19-29.19-65.19-65.19v-337.57c0-36,29.19-65.19,65.19-65.19h76.71c36,0,65.19,29.19,65.19,65.19v337.57Z"/><line class="cls-3" x1="178.01" y1="435.32" x2="282.93" y2="435.32"/><line class="cls-1" x1="178.01" y1="517.86" x2="282.93" y2="517.86"/><line class="cls-2" x1="179.39" y1="600.41" x2="284.31" y2="600.41"/></svg>